<svg width="113" height="104" viewBox="0 0 113 104" fill="none" xmlns="http://www.w3.org/2000/svg">
<path d="M41.1128 42.2581C41.3085 42.2581 41.495 42.2672 41.6907 42.2672C41.3221 42.2581 41.1128 42.2581 41.1128 42.2581Z" fill="#40B3ED"/>
<path d="M40.5352 42.2672C40.7263 42.2672 40.9174 42.2581 41.1131 42.2581C41.1085 42.2581 40.8992 42.2581 40.5352 42.2672Z" fill="#40B3ED"/>
<path fill-rule="evenodd" clip-rule="evenodd" d="M93.3657 10.7128C71.4828 -3.1259 42.9517 -4.03111 19.6262 10.7768C19.3578 20.1169 20.8776 29.4021 24.0492 38.0838L53.1947 55.8633L28.3175 47.5976C34.6426 59.3561 44.2394 69.3591 56.5483 76.1162C71.2553 68.0059 82.8042 54.6655 88.8199 38.5318L58.8372 20.2403L91.2634 30.6182C92.847 24.2131 93.5705 17.5475 93.3657 10.7128Z" fill="url(#paint0_linear)"/>
<path d="M2.75301 103.377C1.62451 103.07 0.705314 102.677 0 102.202L1.69276 98.974C2.45723 99.4678 3.27631 99.8427 4.14544 100.094C5.01457 100.35 5.87915 100.474 6.74827 100.474C7.5719 100.474 8.21351 100.355 8.66855 100.112C9.12359 99.8747 9.35111 99.5409 9.35111 99.1203C9.35111 98.7592 9.14634 98.4757 8.73225 98.27C8.31816 98.0688 7.6811 97.8494 6.81197 97.6162C5.82908 97.3556 5.01002 97.0905 4.35931 96.8207C3.7086 96.551 3.14889 96.1395 2.6802 95.5909C2.21151 95.0378 1.97489 94.3109 1.97489 93.4102C1.97489 92.3221 2.27067 91.3666 2.86677 90.5437C3.45832 89.7254 4.3047 89.0853 5.4059 88.6373C6.5071 88.1893 7.79032 87.9607 9.26921 87.9607C10.3522 87.9607 11.3669 88.075 12.3043 88.299C13.2417 88.523 14.0562 88.8476 14.7342 89.2682L13.1735 92.473C12.5819 92.0935 11.9266 91.8101 11.2122 91.6135C10.4978 91.4169 9.76065 91.3209 9.00983 91.3209C8.15435 91.3209 7.48999 91.4581 7.0031 91.737C6.52075 92.0113 6.27503 92.3679 6.27503 92.8067C6.27503 93.1862 6.48435 93.4742 6.90299 93.68C7.32163 93.8857 7.97234 94.1005 8.85512 94.3337C9.83801 94.5806 10.6525 94.8366 11.2941 95.0972C11.9357 95.3578 12.4909 95.7601 12.955 96.295C13.4192 96.8345 13.6467 97.5385 13.6467 98.4117C13.6467 99.4861 13.3464 100.437 12.7457 101.255C12.1451 102.078 11.2941 102.714 10.1838 103.162C9.07808 103.61 7.79487 103.838 6.33419 103.838C5.07372 103.838 3.87696 103.683 2.75301 103.377Z" fill="black"/>
<path d="M35.3569 88.2761L32.3627 103.532H28.3948L29.9555 95.4903L24.9 102.028H23.0116L20.2541 95.4903L18.6478 103.532H14.698L17.7331 88.2761H21.2233L24.7817 97.1042L31.6802 88.2761H35.3569Z" fill="black"/>
<path d="M46.3323 100.565H39.8707L38.1142 103.527H33.582L43.3245 88.2715H47.5564L51.224 103.527H46.9512L46.3323 100.565ZM45.6816 97.383L44.6623 92.4364L41.7546 97.383H45.6816Z" fill="black"/>
<path d="M66.9863 96.743C66.2492 97.7533 65.2162 98.4894 63.883 98.9557L66.463 103.532H61.9718L59.7148 99.4769H57.5442L56.7433 103.532H52.4478L55.4829 88.2761H61.9672C63.9057 88.2761 65.4073 88.7059 66.4812 89.5608C67.5506 90.4203 68.0875 91.6089 68.0875 93.1359C68.0921 94.5303 67.7235 95.7326 66.9863 96.743ZM63.123 92.1438C62.7044 91.8329 62.1174 91.6729 61.3666 91.6729H59.1096L58.1995 96.1395H60.7614C61.7169 96.1395 62.4541 95.9155 62.9729 95.4629C63.4916 95.0149 63.7555 94.3748 63.7555 93.5428C63.7555 92.9256 63.5417 92.4547 63.123 92.1438Z" fill="black"/>
<path d="M73.8622 91.6958H69.198L69.8897 88.2761H83.4909L82.7992 91.6958H78.1578L75.7916 103.532H71.496L73.8622 91.6958Z" fill="black"/>
<path d="M96.3143 91.6092L96.9878 88.2764H85.1021L84.4377 91.6092H88.7242H96.3143Z" fill="url(#paint1_linear)"/>
<path d="M113 88.2764H108.14L104.277 92.6561L102.066 88.2764H97.4878L101.369 95.6414L103.258 98.956L105.556 103.532H110.202L106.079 95.8792L113 88.2764Z" fill="url(#paint2_linear)"/>
<path d="M94.1479 103.532H99.2899L102.512 99.8105H97.5517L94.1479 103.532Z" fill="url(#paint3_linear)"/>
<path d="M83.7502 95.0515L82.062 103.532H86.3576L87.3996 98.302H94.0796L94.7349 95.0515H83.7502Z" fill="url(#paint4_linear)"/>
<defs>
<linearGradient id="paint0_linear" x1="19.5962" y1="38.0615" x2="93.3991" y2="38.0615" gradientUnits="userSpaceOnUse">
<stop stop-color="#007EE9"/>
<stop offset="0.1539" stop-color="#0081E9"/>
<stop offset="0.2145" stop-color="#0085E9"/>
<stop offset="0.3917" stop-color="#359AF7"/>
<stop offset="0.5152" stop-color="#55A7FF"/>
<stop offset="0.6055" stop-color="#4FA2FD"/>
<stop offset="0.7281" stop-color="#3E93F9"/>
<stop offset="0.8685" stop-color="#217CF2"/>
<stop offset="1" stop-color="#0060E9"/>
</linearGradient>
<linearGradient id="paint1_linear" x1="84.4364" y1="89.942" x2="96.9882" y2="89.942" gradientUnits="userSpaceOnUse">
<stop stop-color="#007EE9"/>
<stop offset="0.1539" stop-color="#0081E9"/>
<stop offset="0.2145" stop-color="#0085E9"/>
<stop offset="0.3917" stop-color="#359AF7"/>
<stop offset="0.5152" stop-color="#55A7FF"/>
<stop offset="0.6055" stop-color="#4FA2FD"/>
<stop offset="0.7281" stop-color="#3E93F9"/>
<stop offset="0.8685" stop-color="#217CF2"/>
<stop offset="1" stop-color="#0060E9"/>
</linearGradient>
<linearGradient id="paint2_linear" x1="97.4867" y1="95.9032" x2="112.998" y2="95.9032" gradientUnits="userSpaceOnUse">
<stop stop-color="#007EE9"/>
<stop offset="0.1539" stop-color="#0081E9"/>
<stop offset="0.2145" stop-color="#0085E9"/>
<stop offset="0.3917" stop-color="#359AF7"/>
<stop offset="0.5152" stop-color="#55A7FF"/>
<stop offset="0.6055" stop-color="#4FA2FD"/>
<stop offset="0.7281" stop-color="#3E93F9"/>
<stop offset="0.8685" stop-color="#217CF2"/>
<stop offset="1" stop-color="#0060E9"/>
</linearGradient>
<linearGradient id="paint3_linear" x1="94.1465" y1="101.671" x2="102.514" y2="101.671" gradientUnits="userSpaceOnUse">
<stop stop-color="#007EE9"/>
<stop offset="0.1539" stop-color="#0081E9"/>
<stop offset="0.2145" stop-color="#0085E9"/>
<stop offset="0.3917" stop-color="#359AF7"/>
<stop offset="0.5152" stop-color="#55A7FF"/>
<stop offset="0.6055" stop-color="#4FA2FD"/>
<stop offset="0.7281" stop-color="#3E93F9"/>
<stop offset="0.8685" stop-color="#217CF2"/>
<stop offset="1" stop-color="#0060E9"/>
</linearGradient>
<linearGradient id="paint4_linear" x1="82.0625" y1="99.2912" x2="94.7361" y2="99.2912" gradientUnits="userSpaceOnUse">
<stop stop-color="#007EE9"/>
<stop offset="0.1539" stop-color="#0081E9"/>
<stop offset="0.2145" stop-color="#0085E9"/>
<stop offset="0.3917" stop-color="#359AF7"/>
<stop offset="0.5152" stop-color="#55A7FF"/>
<stop offset="0.6055" stop-color="#4FA2FD"/>
<stop offset="0.7281" stop-color="#3E93F9"/>
<stop offset="0.8685" stop-color="#217CF2"/>
<stop offset="1" stop-color="#0060E9"/>
</linearGradient>
</defs>
</svg>
